# xmcd
#
# Track frame offsets:
#	150
#	5542
#	13499
#	29570
#	39779
#	79966
#	83112
#	84629
#	89369
#	97529
#	106155
#	109630
#	113191
#	117911
#	124010
#	136803
#	143692
#	155872
#	166690
#	173325
#	178310
#	188248
#	192452
#	203912
#	212269
#	215810
#	219968
#	226099
#	233102
#
# Disc length: 3149 seconds
#
# Revision: 1
# Processed by: cddbd v1.5.2PL0 Copyright (c) Steve Scherf et al.
# Submitted via: audiograbber 1.83.01
#
DISCID=7d0c4b1d
DTITLE=Цвітень - Колядки і щедрівки
DYEAR=2005
DGENRE=Ethnic
TTITLE0=Ой, ведення-народження
TTITLE1=Чи хазяїн спить, чи лежить
TTITLE2=Возстаніте от сна
TTITLE3=Го-го-го, коза
TTITLE4=Вертеп
TTITLE5=Подь, баранку
TTITLE6=Пречистая мати
TTITLE7=Надворі чорна хмара
TTITLE8=Гой, дай, Божи
TTITLE9=Всі язици, восплещіте
TTITLE10=Де ти, Ілля, ходиш
TTITLE11=Дівка Марусечка
TTITLE12=Позаквивали вишні-черешні
TTITLE13=По горі, горі пави ходили
TTITLE14=Гой, дай, Божі
TTITLE15=Розуйгралися буйні вітрови
TTITLE16=Пасли увці
TTITLE17=Ой, попід гору
TTITLE18=Ой, рано-рано
TTITLE19=Коло кринички
TTITLE20=Чи вдома, вдома
TTITLE21=Радуйтеся пастирі
TTITLE22=Що в полі, полі
TTITLE23=Василева мати
TTITLE24=Що тото за звізда
TTITLE25=По горі пави
TTITLE26=Ой пряла Анна
TTITLE27=Попід горі
TTITLE28=Чаша вина
EXTD=
EXTT0=
EXTT1=
EXTT2=
EXTT3=
EXTT4=
EXTT5=
EXTT6=
EXTT7=
EXTT8=
EXTT9=
EXTT10=
EXTT11=
EXTT12=
EXTT13=
EXTT14=
EXTT15=
EXTT16=
EXTT17=
EXTT18=
EXTT19=
EXTT20=
EXTT21=
EXTT22=
EXTT23=
EXTT24=
EXTT25=
EXTT26=
EXTT27=
EXTT28=
PLAYORDER=
